<svg width="181" height="186" viewBox="0 0 181 186" fill="none" xmlns="http://www.w3.org/2000/svg">
<path d="M78.0625 32.25L79 52.125H76.625C76.1667 48.625 75.5417 46.125 74.75 44.625C73.4583 42.2083 71.7292 40.4375 69.5625 39.3125C67.4375 38.1458 64.625 37.5625 61.125 37.5625H49.1875V102.312C49.1875 107.521 49.75 110.771 50.875 112.062C52.4583 113.812 54.8958 114.688 58.1875 114.688H61.125V117H25.1875V114.688H28.1875C31.7708 114.688 34.3125 113.604 35.8125 111.438C36.7292 110.104 37.1875 107.062 37.1875 102.312V37.5625H27C23.0417 37.5625 20.2292 37.8542 18.5625 38.4375C16.3958 39.2292 14.5417 40.75 13 43C11.4583 45.25 10.5417 48.2917 10.25 52.125H7.875L8.875 32.25H78.0625Z" fill="white"/>
<path d="M59.8125 121.758L59.959 124.863H59.5879C59.5163 124.316 59.4186 123.926 59.2949 123.691C59.0931 123.314 58.8229 123.037 58.4844 122.861C58.1523 122.679 57.7129 122.588 57.166 122.588H55.3008V132.705C55.3008 133.519 55.3887 134.027 55.5645 134.229C55.8118 134.502 56.1927 134.639 56.707 134.639H57.166V135H51.5508V134.639H52.0195C52.5794 134.639 52.9766 134.469 53.2109 134.131C53.3542 133.923 53.4258 133.447 53.4258 132.705V122.588H51.834C51.2155 122.588 50.776 122.633 50.5156 122.725C50.1771 122.848 49.8874 123.086 49.6465 123.438C49.4056 123.789 49.2624 124.264 49.2168 124.863H48.8457L49.002 121.758H59.8125ZM64.0605 125.791C65.4147 125.791 66.502 126.305 67.3223 127.334C68.0189 128.213 68.3672 129.222 68.3672 130.361C68.3672 131.162 68.1751 131.973 67.791 132.793C67.4069 133.613 66.8763 134.232 66.1992 134.648C65.5286 135.065 64.7799 135.273 63.9531 135.273C62.6055 135.273 61.5345 134.736 60.7402 133.662C60.0697 132.757 59.7344 131.742 59.7344 130.615C59.7344 129.795 59.9362 128.981 60.3398 128.174C60.75 127.36 61.2871 126.761 61.9512 126.377C62.6152 125.986 63.3184 125.791 64.0605 125.791ZM63.7578 126.426C63.4128 126.426 63.0645 126.53 62.7129 126.738C62.3678 126.94 62.0879 127.298 61.873 127.812C61.6582 128.327 61.5508 128.988 61.5508 129.795C61.5508 131.097 61.8079 132.22 62.3223 133.164C62.8431 134.108 63.5267 134.58 64.373 134.58C65.0046 134.58 65.5254 134.32 65.9355 133.799C66.3457 133.278 66.5508 132.383 66.5508 131.113C66.5508 129.525 66.209 128.275 65.5254 127.363C65.0632 126.738 64.474 126.426 63.7578 126.426ZM69.1777 126.055H73.3477V126.416H73.1426C72.8496 126.416 72.6283 126.481 72.4785 126.611C72.3353 126.735 72.2637 126.891 72.2637 127.08C72.2637 127.334 72.3711 127.686 72.5859 128.135L74.7637 132.646L76.7656 127.705C76.8763 127.438 76.9316 127.174 76.9316 126.914C76.9316 126.797 76.9089 126.709 76.8633 126.65C76.8112 126.579 76.7298 126.523 76.6191 126.484C76.5085 126.439 76.3132 126.416 76.0332 126.416V126.055H78.9434V126.416C78.7025 126.442 78.5169 126.494 78.3867 126.572C78.2565 126.65 78.1133 126.797 77.957 127.012C77.8984 127.103 77.7878 127.354 77.625 127.764L73.9824 136.689C73.6309 137.555 73.1686 138.21 72.5957 138.652C72.0293 139.095 71.4824 139.316 70.9551 139.316C70.571 139.316 70.2552 139.206 70.0078 138.984C69.7604 138.763 69.6367 138.509 69.6367 138.223C69.6367 137.949 69.7246 137.728 69.9004 137.559C70.0827 137.396 70.3301 137.314 70.6426 137.314C70.8574 137.314 71.1504 137.386 71.5215 137.529C71.7819 137.627 71.9447 137.676 72.0098 137.676C72.2051 137.676 72.4167 137.575 72.6445 137.373C72.8789 137.171 73.1133 136.781 73.3477 136.201L73.9824 134.648L70.7695 127.9C70.6719 127.699 70.5156 127.448 70.3008 127.148C70.138 126.921 70.0046 126.768 69.9004 126.689C69.7507 126.585 69.5098 126.494 69.1777 126.416V126.055ZM85.4668 125.791V128.838H85.1445C84.8971 127.881 84.5781 127.23 84.1875 126.885C83.8034 126.54 83.3118 126.367 82.7129 126.367C82.2572 126.367 81.8893 126.488 81.6094 126.729C81.3294 126.969 81.1895 127.236 81.1895 127.529C81.1895 127.894 81.2936 128.206 81.502 128.467C81.7038 128.734 82.1139 129.017 82.7324 129.316L84.1582 130.01C85.4798 130.654 86.1406 131.504 86.1406 132.559C86.1406 133.372 85.8314 134.03 85.2129 134.531C84.6009 135.026 83.9141 135.273 83.1523 135.273C82.6055 135.273 81.9805 135.176 81.2773 134.98C81.0625 134.915 80.8867 134.883 80.75 134.883C80.6003 134.883 80.4831 134.967 80.3984 135.137H80.0762V131.943H80.3984C80.5807 132.855 80.929 133.542 81.4434 134.004C81.9577 134.466 82.5339 134.697 83.1719 134.697C83.6211 134.697 83.9857 134.567 84.2656 134.307C84.5521 134.04 84.6953 133.721 84.6953 133.35C84.6953 132.9 84.5358 132.523 84.2168 132.217C83.9043 131.911 83.276 131.523 82.332 131.055C81.388 130.586 80.7695 130.163 80.4766 129.785C80.1836 129.414 80.0371 128.945 80.0371 128.379C80.0371 127.643 80.2878 127.028 80.7891 126.533C81.2969 126.038 81.9512 125.791 82.752 125.791C83.1035 125.791 83.5299 125.866 84.0312 126.016C84.3633 126.113 84.5846 126.162 84.6953 126.162C84.7995 126.162 84.8809 126.139 84.9395 126.094C84.998 126.048 85.0664 125.947 85.1445 125.791H85.4668ZM91.5898 121.758H95.1836L103.279 131.689V124.053C103.279 123.239 103.188 122.731 103.006 122.529C102.765 122.256 102.384 122.119 101.863 122.119H101.404V121.758H106.014V122.119H105.545C104.985 122.119 104.588 122.288 104.354 122.627C104.21 122.835 104.139 123.311 104.139 124.053V135.215H103.787L95.0566 124.551V132.705C95.0566 133.519 95.1445 134.027 95.3203 134.229C95.5677 134.502 95.9486 134.639 96.4629 134.639H96.9316V135H92.3223V134.639H92.7812C93.3477 134.639 93.748 134.469 93.9824 134.131C94.1257 133.923 94.1973 133.447 94.1973 132.705V123.496C93.8132 123.047 93.5202 122.751 93.3184 122.607C93.123 122.464 92.8333 122.331 92.4492 122.207C92.2604 122.148 91.974 122.119 91.5898 122.119V121.758ZM111.307 125.791C112.661 125.791 113.748 126.305 114.568 127.334C115.265 128.213 115.613 129.222 115.613 130.361C115.613 131.162 115.421 131.973 115.037 132.793C114.653 133.613 114.122 134.232 113.445 134.648C112.775 135.065 112.026 135.273 111.199 135.273C109.852 135.273 108.781 134.736 107.986 133.662C107.316 132.757 106.98 131.742 106.98 130.615C106.98 129.795 107.182 128.981 107.586 128.174C107.996 127.36 108.533 126.761 109.197 126.377C109.861 125.986 110.564 125.791 111.307 125.791ZM111.004 126.426C110.659 126.426 110.311 126.53 109.959 126.738C109.614 126.94 109.334 127.298 109.119 127.812C108.904 128.327 108.797 128.988 108.797 129.795C108.797 131.097 109.054 132.22 109.568 133.164C110.089 134.108 110.773 134.58 111.619 134.58C112.251 134.58 112.771 134.32 113.182 133.799C113.592 133.278 113.797 132.383 113.797 131.113C113.797 129.525 113.455 128.275 112.771 127.363C112.309 126.738 111.72 126.426 111.004 126.426ZM116.434 126.055H120.184V126.416C119.839 126.442 119.611 126.504 119.5 126.602C119.396 126.699 119.344 126.839 119.344 127.021C119.344 127.223 119.399 127.467 119.51 127.754L121.424 132.9L123.348 128.711L122.84 127.393C122.684 127.002 122.479 126.732 122.225 126.582C122.081 126.491 121.814 126.436 121.424 126.416V126.055H125.682V126.416C125.213 126.436 124.881 126.52 124.686 126.67C124.555 126.774 124.49 126.94 124.49 127.168C124.49 127.298 124.516 127.432 124.568 127.568L126.6 132.705L128.484 127.754C128.615 127.402 128.68 127.122 128.68 126.914C128.68 126.79 128.615 126.68 128.484 126.582C128.361 126.484 128.113 126.429 127.742 126.416V126.055H130.564V126.416C129.998 126.501 129.581 126.885 129.314 127.568L126.326 135.273H125.926L123.689 129.561L121.082 135.273H120.721L117.85 127.754C117.661 127.279 117.475 126.96 117.293 126.797C117.111 126.628 116.824 126.501 116.434 126.416V126.055Z" fill="white"/>
<path fill-rule="evenodd" clip-rule="evenodd" d="M111.312 99.25H88.3125V101.562C90.7708 101.562 92.6042 101.75 93.8125 102.125C96.2708 102.917 98.125 103.771 99.375 104.688C100.667 105.604 102.542 107.5 105 110.375V117H125.781L111.312 99.25ZM144.53 140L163.125 162.812V140H168.625V185.375H166.375L129.227 140H144.53ZM110.5 140H105V169.312C105 174.062 104.542 177.104 103.625 178.438C102.125 180.604 99.5625 181.688 95.9375 181.688H93V184H122.5V181.688H119.5C116.208 181.688 113.771 180.812 112.188 179.062C111.062 177.771 110.5 174.521 110.5 169.312V140ZM168.625 117H163.125V113.938C163.125 108.729 162.542 105.479 161.375 104.188C159.833 102.438 157.396 101.562 154.062 101.562H151.125V99.25H180.625V101.562H177.625C174.042 101.562 171.5 102.646 170 104.812C169.083 106.146 168.625 109.188 168.625 113.938V117Z" fill="white"/>
</svg>
